<svg xmlns="http://www.w3.org/2000/svg" width="32" height="32" viewBox="0 0 32 32"><g transform="translate(1151.72 -790.285)"><rect width="12" height="6.984" x="-1142.219" y="793.785" fill="#2bbda8" stroke="#373449" stroke-linecap="round" stroke-linejoin="round"/><path fill="#ff5a67" stroke="#373449" d="m -1143.2195,804.78532 c 0,0 0,0.7929 0,1.5 0,2.3296 5,1.8334 5,3.5 0,4.111 -1.6499,6.1677 0,7.8176 0.9428,0.9428 3.0572,0.9428 4,0 1.6499,-1.6499 0,-4.1912 0,-7.8176 0,-1.6666 4.9918,-0.9494 4.9918,-3.5 0,-0.885 0,-1.5 0,-1.5 z"/><rect width="14" height="4" x="-1143.219" y="800.785" fill="none" stroke="#373449" stroke-linecap="round" stroke-linejoin="round"/><path fill="#ff5a67" stroke="#373449" stroke-linecap="round" stroke-linejoin="round" d="m -1138.2195,793.81002 0,4 c 0,0.554 0.4392,1 0.9687,1 l 0.062,0 c 0.5296,0 0.9688,-0.446 0.9688,-1 l 0,-1.4971 c 0,-0.3992 0.2205,-1 1,-1 0.7669,0 1,0.5741 1,1 l 0,0.9971 c 0,0.554 0.4392,1 0.9687,1 l 0.094,0 c 0.5295,0 0.9375,-0.446 0.9375,-1 l 0,-3.5 z"/></g></svg>