<svg xmlns="http://www.w3.org/2000/svg" width="64" height="64" enable-background="new 0 0 64 64" viewBox="0 0 64 64"><path fill="#fff0dc" d="M58,26h-7.188l-4.649-13.975H17.838L13.188,26H6c-2.209,0-4,1.791-4,4v5.975h2v16h56v-16h2V30
							C62,27.791,60.209,26,58,26z M22.162,18.025h19.676l2.649,7.949H19.513L22.162,18.025z"/><path fill="#ff7454" d="M58,26h-7.188l-4.649-13.975H17.838L13.188,26H6c-2.209,0-4,1.791-4,4v5.975h60V30
					C62,27.791,60.209,26,58,26z M19.513,25.975l2.649-7.949h19.676l2.649,7.949H19.513z"/><path fill="#4b4b4b" d="M20.265,17.393l-2.649,7.949c-0.203,0.61-0.101,1.28,0.275,1.802s0.979,0.831,1.622,0.831h24.975
				c0.643,0,1.246-0.309,1.622-0.831s0.479-1.192,0.275-1.802l-2.649-7.949c-0.272-0.817-1.036-1.368-1.897-1.368H22.162
				C21.301,16.025,20.537,16.576,20.265,17.393z M22.287,23.975l1.316-3.949h16.793l1.316,3.949H22.287z"/><path fill="#4b4b4b" d="M58,24h-5.746L48.06,11.394c-0.271-0.817-1.036-1.369-1.897-1.369H33.999c-1.104,0-2,0.896-2,2
				s0.896,2,2,2H44.72l4.194,12.606C49.186,27.449,49.95,28,50.812,28H58c1.103,0,2,0.897,2,2v3.975H4V30c0-1.103,0.897-2,2-2h7.188
				c0.861,0,1.626-0.551,1.897-1.369l4.194-12.606H22c1.104,0,2-0.896,2-2s-0.896-2-2-2h-4.162c-0.861,0-1.626,0.551-1.897,1.369
				L11.746,24H6c-3.309,0-6,2.691-6,6v5.975c0,1.104,0.896,2,2,2v14c0,1.104,0.896,2,2,2h34c1.104,0,2-0.896,2-2s-0.896-2-2-2H6v-12
				h4V40c0,1.104,0.896,2,2,2s2-0.896,2-2v-2.025h4V44c0,1.104,0.896,2,2,2s2-0.896,2-2v-6.025h4V40c0,1.104,0.896,2,2,2
				s2-0.896,2-2v-2.025h4V40c0,1.104,0.896,2,2,2s2-0.896,2-2v-2.025h4V44c0,1.104,0.896,2,2,2s2-0.896,2-2v-6.025h4V40
				c0,1.104,0.896,2,2,2s2-0.896,2-2v-2.025h4v12h-8c-1.104,0-2,0.896-2,2s0.896,2,2,2h10c1.104,0,2-0.896,2-2v-14
				c1.104,0,2-0.896,2-2V30C64,26.691,61.309,24,58,24z"/><path fill="#4b4b4b" d="M42.58 50.59C42.21 50.96 42 51.48 42 52s.21 1.04.58 1.41C42.96 53.79 43.47 54 44 54s1.04-.21 1.41-.59C45.79 53.04 46 52.52 46 52s-.21-1.04-.59-1.41C44.67 49.84 43.33 49.84 42.58 50.59zM28 14c.52 0 1.04-.21 1.41-.59C29.79 13.04 30 12.53 30 12c0-.53-.21-1.04-.59-1.41-.74-.75-2.08-.75-2.82 0C26.21 10.96 26 11.47 26 12c0 .53.21 1.04.59 1.41C26.96 13.79 27.47 14 28 14z"/></svg>