<svg xmlns="http://www.w3.org/2000/svg" width="16" height="16" viewBox="0 0 16 16"><g transform="translate(-473.617 -516.202)"><path fill="#c2e4f8" d="m 487.11505,521.6977 0,8.0041 c -3,-6e-4 -6,0 -9,0 0,-3.666 0,-7.332 0,-10.998 l 6.00523,0 -0.004,2.9939 z"/><path fill="none" stroke="#249fe6" stroke-linecap="round" d="m 487.11505,521.6977 0,8.0041 c -3,-6e-4 -6,0 -9,0 0,-3.666 0,-7.332 0,-10.998 l 6.00523,0 -0.004,2.9939 z"/><path fill="none" stroke="#249fe6" d="M484.26739 518.56118l2.9961 2.99218M476.61505 520.70177l5 0M475.61505 522.70177l5 0M474.61505 524.70177l5 0"/></g></svg>