<svg xmlns="http://www.w3.org/2000/svg" data-name="Layer 1" viewBox="0 0 512 512"><path fill="#00acea" d="M208.02,267.12a34.024,34.024,0,1,0-26.09,12.18A33.876,33.876,0,0,0,208.02,267.12Zm127.13,57.77v68.92a42.861,42.861,0,0,1-42.86,42.86H71.57a42.861,42.861,0,0,1-42.86-42.86V148.86c25.54,0,25.54,21.42,51.07,21.42s25.54-21.42,51.07-21.42,25.54,21.42,51.07,21.42,25.54-21.42,51.07-21.42,25.54,21.42,51.08,21.42,25.54-21.42,51.08-21.42V324.89Z"/><path fill="#00efd1" d="M335.15,75.33v73.53c-25.54,0-25.54,21.42-51.08,21.42s-25.54-21.42-51.08-21.42-25.53,21.42-51.07,21.42-25.53-21.42-51.07-21.42-25.53,21.42-51.07,21.42-25.53-21.42-51.07-21.42V75.33Z"/><path fill="#f4b844" d="M215.95,245.29a34.02,34.02,0,1,1-34.02-34.02A33.876,33.876,0,0,1,215.95,245.29Z"/><path fill="#083863" d="M448.324,224.527,343,176.7V75.33c0-4.418-3.432-8.33-7.85-8.33H28.71C24.292,67,21,70.912,21,75.33V393.81C21,421.854,43.525,445,71.57,445H292.29c28.045,0,50.71-23.146,50.71-51.19v-56.5l44.844,20.342a73.11,73.11,0,1,0,60.48-133.125ZM327,83v58.529c-11,1.874-17.163,7.346-22.605,11.911-6.12,5.132-10.5,8.84-20.362,8.84s-14.262-3.708-20.381-8.84c-6.683-5.6-14.991-12.58-30.671-12.58S209,147.835,202.315,153.439c-6.119,5.133-10.537,8.841-20.4,8.841s-14.271-3.707-20.387-8.838c-6.683-5.606-15-12.582-30.681-12.582s-23.99,6.975-30.671,12.579c-6.119,5.133-10.539,8.841-20.4,8.841s-14.127-3.707-20.243-8.838C54.094,148.876,47,143.4,37,141.529V83Zm0,310.81c0,19.222-15.488,35.19-34.71,35.19H71.57C52.348,429,37,413.032,37,393.81V157.92c5,1.452,8.086,4.285,12.254,7.781,6.682,5.6,14.923,12.579,30.6,12.579S103.815,171.3,110.5,165.7c6.116-5.13,10.517-8.837,20.37-8.837s14.272,3.708,20.391,8.841c6.681,5.6,14.991,12.579,30.665,12.579s24-6.977,30.68-12.583c6.117-5.13,10.534-8.837,20.387-8.837s14.28,3.708,20.4,8.839c6.683,5.6,15,12.581,30.681,12.581s23.922-6.976,30.6-12.581c4.168-3.5,7.324-6.327,12.324-7.779V312.465L219.639,263.647a42.034,42.034,0,1,0-9.915,13.07L327,330.039ZM201.887,261.983a26.018,26.018,0,1,1,6.063-16.693A25.971,25.971,0,0,1,201.887,261.983Zm268.27,52.727a57.165,57.165,0,0,1-75.692,28.376L343,319.735V194.273l98.7,44.82A57.213,57.213,0,0,1,470.157,314.71Z"/></svg>