<svg xmlns="http://www.w3.org/2000/svg" width="63" height="64" fill-rule="evenodd" clip-rule="evenodd" image-rendering="optimizeQuality" shape-rendering="geometricPrecision" text-rendering="geometricPrecision" version="1" viewBox="0 0 13257 13454"><path fill="#27afb7" fill-rule="nonzero" d="M6471 2831l2351 -899 5 -2 5 -2c421,-151 950,235 1476,955 509,696 1043,1720 1474,2847 271,708 470,1396 592,2011 119,598 166,1132 137,1556 164,190 299,401 408,626 204,422 312,892 333,1344 21,454 -47,894 -192,1255 -241,600 -694,992 -1318,922 -240,-27 -434,-128 -568,-281 -79,-90 -137,-198 -170,-318 -32,-115 -42,-241 -27,-373 38,-342 242,-735 649,-1092 388,-340 256,-763 157,-966 -105,6 -214,-13 -328,-56l-7760 2967c-426,163 -976,-191 -1522,-895 -498,-642 -1018,-1590 -1438,-2691l-1 -1c-421,-1100 -667,-2153 -724,-2963 -63,-888 112,-1519 538,-1682l2532 -968 0 -3915c0,-117 95,-212 212,-212l6 0 2960 0c117,0 212,95 212,212l0 6 0 2614zm5623 6081c-11,-318 -56,-686 -136,-1089 -118,-593 -310,-1257 -572,-1942 -418,-1094 -932,-2082 -1419,-2748 -414,-566 -779,-888 -995,-806 -231,88 -316,614 -267,1363 54,823 291,1882 696,2943l2 5c137,357 283,696 435,1012 136,283 276,547 416,786 769,-56 1377,136 1840,474zm-2127 -133l-3 -5 -3 -5c-173,-286 -343,-600 -504,-934 -158,-328 -310,-679 -450,-1045l-1 -3 0 0c-420,-1100 -666,-2206 -723,-3070 -30,-456 -4,-851 79,-1157l-1892 723 0 4444c0,466 -191,890 -497,1197 -307,307 -731,497 -1197,497l0 0c-466,0 -890,-191 -1197,-497 -307,-307 -498,-731 -498,-1197l0 -3148 -2381 910c-230,88 -316,562 -267,1256 54,772 291,1781 697,2843l0 1c406,1063 903,1972 1377,2583 427,550 806,846 1037,758l7458 -2852 -30 -25c-321,-279 -670,-720 -1007,-1276zm1558 1152c19,6 36,14 52,25 94,41 175,50 240,25 94,-36 204,0 257,90l3 5c74,115 591,955 -172,1623 -321,281 -480,574 -507,820 -9,79 -4,151 14,213 16,58 44,110 81,153 65,75 166,125 296,139 405,45 708,-234 879,-659 123,-306 180,-685 162,-1080 -18,-396 -113,-808 -292,-1178 -340,-702 -995,-1253 -2026,-1256 253,380 505,682 738,883 99,86 191,152 274,196zm-6749 -3262c219,0 418,89 562,233l15 16c135,143 218,335 218,546 0,218 -89,417 -233,561l-1 1c-144,144 -343,233 -561,233 -218,0 -417,-89 -561,-233l-1 1c-143,-143 -233,-342 -233,-562 0,-219 89,-418 233,-562 143,-143 342,-233 562,-233zm262 532c-67,-67 -160,-109 -262,-109 -102,0 -195,42 -262,109 -67,67 -109,160 -109,262 0,102 42,195 109,262l-1 1 1 1c66,66 159,108 262,108 103,0 196,-41 262,-108l1 -1c66,-66 108,-159 108,-262 0,-98 -38,-187 -99,-253l-10 -9zm1009 -6777l-2542 0 0 7304c0,349 143,667 374,897 230,230 548,373 897,373l0 0c349,0 667,-143 897,-373 230,-230 373,-548 373,-897l0 -7304z"/></svg>